#Comment line ignore any data following # character 
#Hierarchical Translation and Rotation (.htr) file 
[Header]	
#Header keywords are followed by a single value 
FileType HTR		#Single word string
DataType HTRS		#Translation followed by rotation and scale data
FileVersion 1		#integer
NumSegments 84		#integer
NumFrames 2		#integer
DataFrameRate 30		#integer, data frame rate in this file
EulerRotationOrder ZYX
CalibrationUnits mm
RotationUnits Degrees
GlobalAxisofGravity Y
BoneLengthAxis Y
ScaleFactor 1.00
[SegmentNames&Hierarchy]
#CHILD	PARENT
MASTER GLOBAL
root MASTER
chest root
L_mid_tent01 root
R_mid_tent01 root
spine01 root
Bip01_Neck chest
L_humerus chest
R_humerus chest
weapon_bone chest
Bip01_Head Bip01_Neck
eye_left_bone Bip01_Head
eye_right_bone Bip01_Head
L_forearm L_humerus
L_front_hand L_forearm
L_weapon_bone L_forearm
L_front_hand01_01 L_front_hand
L_front_hand02_01 L_front_hand
L_front_hand03_01 L_front_hand
L_front_hand01_02 L_front_hand01_01
L_front_hand02_02 L_front_hand02_01
L_front_hand03_02 L_front_hand03_01
R_forearm R_humerus
R_front_hand R_forearm
R_weapon_bone R_forearm
R_front_hand01_01 R_front_hand
R_front_hand02_01 R_front_hand
R_front_hand03_01 R_front_hand
R_front_hand01_02 R_front_hand01_01
R_front_hand02_02 R_front_hand02_01
R_front_hand03_02 R_front_hand03_01
null_rope01_connect L_mid_tent01
Rope1_Seg01 null_rope01_connect
Rope1_Seg02 Rope1_Seg01
Rope1_Seg03 Rope1_Seg02
Rope1_Seg04 Rope1_Seg03
Rope1_Seg05 Rope1_Seg04
Rope1_Seg06 Rope1_Seg05
Rope1_Seg07 Rope1_Seg06
Rope1_Seg09 Rope1_Seg07
L_mid_hand01 Rope1_Seg09
L_mid_hand02 Rope1_Seg09
L_mid_hand03 Rope1_Seg09
null_rope02_connect R_mid_tent01
Rope2_Seg01 null_rope02_connect
Rope2_Seg02 Rope2_Seg01
Rope2_Seg03 Rope2_Seg02
Rope2_Seg04 Rope2_Seg03
Rope2_Seg05 Rope2_Seg04
Rope2_Seg06 Rope2_Seg05
Rope2_Seg07 Rope2_Seg06
Rope2_Seg09 Rope2_Seg07
R_mid_hand01 Rope2_Seg09
R_mid_hand02 Rope2_Seg09
R_mid_hand03 Rope2_Seg09
spine02 spine01
spine03 spine02
pelvis spine03
null_rope03_connect pelvis
null_rope04_connect pelvis
Rope3_Seg01 null_rope03_connect
Rope3_Seg02 Rope3_Seg01
Rope3_Seg03 Rope3_Seg02
Rope3_Seg04 Rope3_Seg03
Rope3_Seg05 Rope3_Seg04
Rope3_Seg06 Rope3_Seg05
Rope3_Seg07 Rope3_Seg06
Rope3_Seg08 Rope3_Seg07
Rope3_Seg09 Rope3_Seg08
R_rear_hand01 Rope3_Seg09
R_rear_hand02 Rope3_Seg09
R_rear_hand03 Rope3_Seg09
Rope4_Seg01 null_rope04_connect
Rope4_Seg02 Rope4_Seg01
Rope4_Seg03 Rope4_Seg02
Rope4_Seg04 Rope4_Seg03
Rope4_Seg05 Rope4_Seg04
Rope4_Seg06 Rope4_Seg05
Rope4_Seg07 Rope4_Seg06
Rope4_Seg08 Rope4_Seg07
Rope4_Seg09 Rope4_Seg08
L_rear_hand01 Rope4_Seg09
L_rear_hand02 Rope4_Seg09
L_rear_hand03 Rope4_Seg09
[BasePosition]
#SegmentName Tx, Ty, Tz, Rx, Ry, Rz, BoneLength
MASTER 0.000000 0.000000 0.000000 -90.000000 0.000000 0.000000 10.000000 
root 0.000000 0.000000 0.000000 0.000000 0.000000 0.000000 10.000000 
chest 0.000000 0.000000 0.000000 0.000000 0.000000 0.000000 10.000000 
L_mid_tent01 0.000000 0.000000 0.000000 0.000000 0.000000 0.000000 10.000000 
R_mid_tent01 0.000000 0.000000 0.000000 0.000000 0.000000 0.000000 10.000000 
spine01 0.000000 0.000000 0.000000 0.000000 0.000000 0.000000 10.000000 
Bip01_Neck 0.000000 0.000000 0.000000 0.000000 0.000000 0.000000 10.000000 
L_humerus 0.000000 0.000000 0.000000 0.000000 0.000000 0.000000 10.000000 
R_humerus 0.000000 0.000000 0.000000 0.000000 0.000000 0.000000 10.000000 
weapon_bone 0.000000 0.000000 0.000000 0.000000 0.000000 0.000000 10.000000 
Bip01_Head 0.000000 0.000000 0.000000 0.000000 0.000000 0.000000 10.000000 
eye_left_bone 0.000000 0.000000 0.000000 0.000000 0.000000 0.000000 10.000000 
eye_right_bone 0.000000 0.000000 0.000000 0.000000 0.000000 0.000000 10.000000 
L_forearm 0.000000 0.000000 0.000000 0.000000 0.000000 0.000000 10.000000 
L_front_hand 0.000000 0.000000 0.000000 0.000000 0.000000 0.000000 10.000000 
L_weapon_bone 0.000000 0.000000 0.000000 0.000000 0.000000 0.000000 10.000000 
L_front_hand01_01 0.000000 0.000000 0.000000 0.000000 0.000000 0.000000 10.000000 
L_front_hand02_01 0.000000 0.000000 0.000000 0.000000 0.000000 0.000000 10.000000 
L_front_hand03_01 0.000000 0.000000 0.000000 0.000000 0.000000 0.000000 10.000000 
L_front_hand01_02 0.000000 0.000000 0.000000 0.000000 0.000000 0.000000 10.000000 
L_front_hand02_02 0.000000 0.000000 0.000000 0.000000 0.000000 0.000000 10.000000 
L_front_hand03_02 0.000000 0.000000 0.000000 0.000000 0.000000 0.000000 10.000000 
R_forearm 0.000000 0.000000 0.000000 0.000000 0.000000 0.000000 10.000000 
R_front_hand 0.000000 0.000000 0.000000 0.000000 0.000000 0.000000 10.000000 
R_weapon_bone 0.000000 0.000000 0.000000 0.000000 0.000000 0.000000 10.000000 
R_front_hand01_01 0.000000 0.000000 0.000000 0.000000 0.000000 0.000000 10.000000 
R_front_hand02_01 0.000000 0.000000 0.000000 0.000000 0.000000 0.000000 10.000000 
R_front_hand03_01 0.000000 0.000000 0.000000 0.000000 0.000000 0.000000 10.000000 
R_front_hand01_02 0.000000 0.000000 0.000000 0.000000 0.000000 0.000000 10.000000 
R_front_hand02_02 0.000000 0.000000 0.000000 0.000000 0.000000 0.000000 10.000000 
R_front_hand03_02 0.000000 0.000000 0.000000 0.000000 0.000000 0.000000 10.000000 
null_rope01_connect 0.000000 0.000000 0.000000 0.000000 0.000000 0.000000 10.000000 
Rope1_Seg01 0.000000 0.000000 0.000000 0.000000 0.000000 0.000000 10.000000 
Rope1_Seg02 0.000000 0.000000 0.000000 0.000000 0.000000 0.000000 10.000000 
Rope1_Seg03 0.000000 0.000000 0.000000 0.000000 0.000000 0.000000 10.000000 
Rope1_Seg04 0.000000 0.000000 0.000000 0.000000 0.000000 0.000000 10.000000 
Rope1_Seg05 0.000000 0.000000 0.000000 0.000000 0.000000 0.000000 10.000000 
Rope1_Seg06 0.000000 0.000000 0.000000 0.000000 0.000000 0.000000 10.000000 
Rope1_Seg07 0.000000 0.000000 0.000000 0.000000 0.000000 0.000000 10.000000 
Rope1_Seg09 0.000000 0.000000 0.000000 0.000000 0.000000 0.000000 10.000000 
L_mid_hand01 0.000000 0.000000 0.000000 0.000000 0.000000 0.000000 10.000000 
L_mid_hand02 0.000000 0.000000 0.000000 0.000000 0.000000 0.000000 10.000000 
L_mid_hand03 0.000000 0.000000 0.000000 0.000000 0.000000 0.000000 10.000000 
null_rope02_connect 0.000000 0.000000 0.000000 0.000000 0.000000 0.000000 10.000000 
Rope2_Seg01 0.000000 0.000000 0.000000 0.000000 0.000000 0.000000 10.000000 
Rope2_Seg02 0.000000 0.000000 0.000000 0.000000 0.000000 0.000000 10.000000 
Rope2_Seg03 0.000000 0.000000 0.000000 0.000000 0.000000 0.000000 10.000000 
Rope2_Seg04 0.000000 0.000000 0.000000 0.000000 0.000000 0.000000 10.000000 
Rope2_Seg05 0.000000 0.000000 0.000000 0.000000 0.000000 0.000000 10.000000 
Rope2_Seg06 0.000000 0.000000 0.000000 0.000000 0.000000 0.000000 10.000000 
Rope2_Seg07 0.000000 0.000000 0.000000 0.000000 0.000000 0.000000 10.000000 
Rope2_Seg09 0.000000 0.000000 0.000000 0.000000 0.000000 0.000000 10.000000 
R_mid_hand01 0.000000 0.000000 0.000000 0.000000 0.000000 0.000000 10.000000 
R_mid_hand02 0.000000 0.000000 0.000000 0.000000 0.000000 0.000000 10.000000 
R_mid_hand03 0.000000 0.000000 0.000000 0.000000 0.000000 0.000000 10.000000 
spine02 0.000000 0.000000 0.000000 0.000000 0.000000 0.000000 10.000000 
spine03 0.000000 0.000000 0.000000 0.000000 0.000000 0.000000 10.000000 
pelvis 0.000000 0.000000 0.000000 0.000000 0.000000 0.000000 10.000000 
null_rope03_connect 0.000000 0.000000 0.000000 0.000000 0.000000 0.000000 10.000000 
null_rope04_connect 0.000000 0.000000 0.000000 0.000000 0.000000 0.000000 10.000000 
Rope3_Seg01 0.000000 0.000000 0.000000 0.000000 0.000000 0.000000 10.000000 
Rope3_Seg02 0.000000 0.000000 0.000000 0.000000 0.000000 0.000000 10.000000 
Rope3_Seg03 0.000000 0.000000 0.000000 0.000000 0.000000 0.000000 10.000000 
Rope3_Seg04 0.000000 0.000000 0.000000 0.000000 0.000000 0.000000 10.000000 
Rope3_Seg05 0.000000 0.000000 0.000000 0.000000 0.000000 0.000000 10.000000 
Rope3_Seg06 0.000000 0.000000 0.000000 0.000000 0.000000 0.000000 10.000000 
Rope3_Seg07 0.000000 0.000000 0.000000 0.000000 0.000000 0.000000 10.000000 
Rope3_Seg08 0.000000 0.000000 0.000000 0.000000 0.000000 0.000000 10.000000 
Rope3_Seg09 0.000000 0.000000 0.000000 0.000000 0.000000 0.000000 10.000000 
R_rear_hand01 0.000000 0.000000 0.000000 0.000000 0.000000 0.000000 10.000000 
R_rear_hand02 0.000000 0.000000 0.000000 0.000000 0.000000 0.000000 10.000000 
R_rear_hand03 0.000000 0.000000 0.000000 0.000000 0.000000 0.000000 10.000000 
Rope4_Seg01 0.000000 0.000000 0.000000 0.000000 0.000000 0.000000 10.000000 
Rope4_Seg02 0.000000 0.000000 0.000000 0.000000 0.000000 0.000000 10.000000 
Rope4_Seg03 0.000000 0.000000 0.000000 0.000000 0.000000 0.000000 10.000000 
Rope4_Seg04 0.000000 0.000000 0.000000 0.000000 0.000000 0.000000 10.000000 
Rope4_Seg05 0.000000 0.000000 0.000000 0.000000 0.000000 0.000000 10.000000 
Rope4_Seg06 0.000000 0.000000 0.000000 0.000000 0.000000 0.000000 10.000000 
Rope4_Seg07 0.000000 0.000000 0.000000 0.000000 0.000000 0.000000 10.000000 
Rope4_Seg08 0.000000 0.000000 0.000000 0.000000 0.000000 0.000000 10.000000 
Rope4_Seg09 0.000000 0.000000 0.000000 0.000000 0.000000 0.000000 10.000000 
L_rear_hand01 0.000000 0.000000 0.000000 0.000000 0.000000 0.000000 10.000000 
L_rear_hand02 0.000000 0.000000 0.000000 0.000000 0.000000 0.000000 10.000000 
L_rear_hand03 0.000000 0.000000 0.000000 0.000000 0.000000 0.000000 10.000000 
#Beginning of Data. Separated by tabs
#Fr	Tx	Ty	Tz	Rx	Ry	Rz	SF
[MASTER]
27 0.000000 0.000000 0.000000 0.001660 0.001660 0.001660 0.000000
28 0.000000 0.000000 0.000000 0.001660 0.001660 0.001660 0.000000
[root]
27 -102.525459 -62.822147 961.782104 -89.531792 -4.766351 -89.978706 969.269287
28 -99.113243 -62.822147 968.233521 -89.491905 -4.548260 -89.655899 975.318481
[chest]
27 -84.512650 -34.090519 0.000000 -0.307809 -0.743092 156.385437 91.129311
28 -84.512650 -34.090519 0.000000 -0.307809 -0.743092 156.385437 91.129311
[L_mid_tent01]
27 23.228750 24.509907 -223.761200 -9.353504 10.947851 -0.148958 226.294907
28 23.228750 24.509907 -223.761200 -10.616116 10.187679 -3.705188 226.294907
[R_mid_tent01]
27 23.228794 24.509907 226.238495 -161.912292 -16.082230 -2.812265 228.744751
28 23.228794 24.509907 226.238495 -162.352600 -20.693523 -4.811518 228.744751
[spine01]
27 -0.361383 -0.195265 0.000000 0.001815 0.001488 11.320962 0.410763
28 -0.361383 -0.195265 0.000000 0.001815 0.001488 11.320962 0.410763
[Bip01_Neck]
27 165.484543 71.581718 0.000119 175.896118 1.177290 24.871185 180.302734
28 165.484543 71.581718 0.000119 175.896118 1.177290 24.871183 180.302734
[L_humerus]
27 -13.983130 -135.272980 -120.471481 -104.702057 -2.574140 -132.238052 181.680161
28 -13.983130 -135.272980 -120.471481 -104.702057 -2.574140 -132.238052 181.680161
[R_humerus]
27 -13.983309 -135.273102 125.287651 84.935974 -3.633310 -127.041832 184.909012
28 -13.983309 -135.273102 125.287651 84.935959 -3.633308 -127.041824 184.909012
[weapon_bone]
27 235.964890 -300.705902 0.000000 0.000000 -89.951546 -128.212341 382.234833
28 235.964890 -300.705902 0.000000 0.000000 -89.951546 -128.212341 382.234833
[Bip01_Head]
27 201.313828 211.516800 15.929732 1.989511 4.535173 -64.968475 292.438660
28 201.313828 211.516800 15.929732 1.436518 4.861899 -64.930855 292.438660
[eye_left_bone]
27 -24.626970 125.451866 -64.772606 0.000000 -90.000000 -99.840431 143.318359
28 -24.626970 125.451866 -64.772606 0.000000 -90.000000 -99.840431 143.318359
[eye_right_bone]
27 -24.626970 125.451866 64.327362 0.000000 -89.965736 80.156380 143.117676
28 -24.626970 125.451866 64.327362 0.000000 -89.965736 80.156380 143.117676
[L_forearm]
27 322.776093 0.000000 -0.000119 0.000357 -0.002320 -107.505997 322.776093
28 322.776093 0.000000 -0.000119 0.000357 -0.002320 -107.506004 322.776093
[L_front_hand]
27 241.149185 -0.042021 -3.300071 -177.752777 -0.319469 -73.408760 241.171753
28 241.149185 -0.042021 -3.300071 -177.752777 -0.319468 -73.408745 241.171753
[L_weapon_bone]
27 156.183838 0.000000 0.000000 0.000014 0.000007 0.000001 156.183838
28 156.183838 0.000000 0.000000 0.000014 0.000007 0.000001 156.183838
[L_front_hand01_01]
27 86.095154 20.947098 -0.655860 0.139491 -0.584553 24.181791 88.609184
28 86.095154 20.947098 -0.655860 0.139491 -0.584553 24.181791 88.609184
[L_front_hand02_01]
27 86.935165 -11.437475 24.513514 119.190460 -21.905657 -12.119139 91.046425
28 86.935165 -11.437475 24.513514 119.190460 -21.905655 -12.119137 91.046425
[L_front_hand03_01]
27 86.637497 -14.123976 -20.424902 -120.437630 20.554037 -14.327168 90.126129
28 86.637497 -14.123976 -20.424902 -120.437630 20.554031 -14.327168 90.126129
[L_front_hand01_02]
27 71.020905 -0.000179 0.000030 0.000334 -0.002323 -106.379684 71.020905
28 71.020905 -0.000179 0.000030 0.000334 -0.002323 -106.379684 71.020905
[L_front_hand02_02]
27 71.020927 -0.000119 0.000060 0.000334 -0.002323 -106.379684 71.020927
28 71.020927 -0.000119 0.000060 0.000334 -0.002323 -106.379684 71.020927
[L_front_hand03_02]
27 71.020905 -0.000060 0.000060 0.000334 -0.002323 -106.379684 71.020905
28 71.020905 -0.000060 0.000060 0.000334 -0.002323 -106.379684 71.020905
[R_forearm]
27 322.776428 -0.000060 0.000030 0.213176 0.008105 -93.737396 322.776428
28 322.776428 -0.000060 0.000030 0.213176 0.008105 -93.737396 322.776428
[R_front_hand]
27 238.847015 -0.006795 2.210259 -1.721140 -0.139412 -83.351707 238.857239
28 238.847015 -0.006795 2.210259 -1.721140 -0.139412 -83.351707 238.857239
[R_weapon_bone]
27 155.664093 0.002503 -0.000030 0.003487 0.001180 -90.988930 155.664078
28 155.664093 0.002503 -0.000030 0.003487 0.001180 -90.988930 155.664078
[R_front_hand01_01]
27 87.624611 14.231146 22.918642 -119.218056 -22.033409 12.303375 91.683487
28 87.624611 14.231146 22.918642 -119.218056 -22.033409 12.303375 91.683487
[R_front_hand02_01]
27 89.356956 14.367283 -19.491137 120.545547 20.947186 14.823013 92.579636
28 89.356956 14.367283 -19.491137 120.545532 20.947184 14.823009 92.579636
[R_front_hand03_01]
27 87.286232 -22.307278 -0.143439 -0.231628 -0.392922 -24.567768 90.091743
28 87.286232 -22.307278 -0.143439 -0.231628 -0.392922 -24.567768 90.091743
[R_front_hand01_02]
27 71.020905 0.000060 0.000119 0.002323 -0.000334 106.381721 71.020905
28 71.020905 0.000060 0.000119 0.002323 -0.000334 106.381714 71.020905
[R_front_hand02_02]
27 71.020844 -0.000030 -0.000119 0.002323 -0.000334 106.381721 71.020836
28 71.020844 -0.000030 -0.000119 0.002323 -0.000334 106.381714 71.020836
[R_front_hand03_02]
27 71.020905 0.000000 0.000030 0.002323 -0.000334 106.381721 71.020905
28 71.020905 0.000000 0.000030 0.002323 -0.000334 106.381714 71.020905
[null_rope01_connect]
27 328.732483 0.000000 -0.000238 -124.661278 -75.953522 -141.366318 328.732483
28 328.732483 0.000000 -0.000238 -127.796967 -75.944618 -134.918457 328.732483
[Rope1_Seg01]
27 0.000000 0.000000 0.000000 72.348114 -28.144558 -142.091888 0.000000
28 0.000000 0.000000 0.000000 55.814434 -32.875729 -127.087257 0.000000
[Rope1_Seg02]
27 139.999863 -0.000179 0.000000 -7.660448 12.287519 1.244825 139.999863
28 139.999863 -0.000179 0.000000 -5.159324 10.721031 -2.824921 139.999863
[Rope1_Seg03]
27 139.999924 0.000060 -0.000060 -3.583575 9.183270 -6.211040 139.999924
28 139.999924 0.000060 -0.000060 5.589976 7.494228 -15.607143 139.999924
[Rope1_Seg04]
27 139.999924 -0.000060 -0.000119 -12.376991 10.184082 2.201189 139.999924
28 139.999924 -0.000060 -0.000119 -16.776289 7.366029 10.903102 139.999924
[Rope1_Seg05]
27 139.999832 0.000119 -0.000060 -18.235598 4.038231 33.622753 139.999832
28 139.999832 0.000119 -0.000060 -13.124948 -2.278563 28.471558 139.999832
[Rope1_Seg06]
27 139.999954 0.000119 -0.000060 -2.817919 -3.565758 13.518582 139.999954
28 139.999954 0.000119 -0.000060 -1.916641 -2.747529 9.190929 139.999954
[Rope1_Seg07]
27 139.999985 0.000060 0.000000 -0.543729 -0.942927 4.324927 139.999985
28 139.999985 0.000060 0.000000 -0.547336 -1.054319 3.731640 139.999985
[Rope1_Seg09]
27 121.602913 0.000119 -0.000089 -89.793175 -1.359789 0.847147 121.602913
28 121.602913 0.000119 -0.000089 -89.793175 -1.359789 0.847147 121.602913
[L_mid_hand01]
27 103.859421 1.038730 8.195221 106.855484 -31.239275 -9.461397 104.187431
28 103.859421 1.038730 8.195221 106.855484 -31.239275 -9.461397 104.187431
[L_mid_hand02]
27 105.572853 -4.139662 -10.864139 -142.331345 25.752670 -28.774628 106.211075
28 105.572853 -4.139662 -10.864139 -142.331345 25.752670 -28.774628 106.211075
[L_mid_hand03]
27 104.641464 17.579376 -3.913581 -16.122810 9.734291 34.223598 106.179977
28 104.641464 17.579376 -3.913581 -16.122810 9.734291 34.223598 106.179977
[null_rope02_connect]
27 328.732849 0.000179 -0.000119 -132.789764 65.618858 -47.855892 328.732849
28 328.732849 0.000179 -0.000119 -123.053894 62.454403 -39.218754 328.732849
[Rope2_Seg01]
27 0.000136 0.000114 -0.000066 93.530815 -8.679165 -120.274590 0.000190
28 0.000135 0.000114 -0.000069 91.902084 -4.124144 -107.164703 0.000190
[Rope2_Seg02]
27 139.999741 -0.000060 -0.000119 -0.606075 12.933843 -6.366606 139.999756
28 139.999741 -0.000060 -0.000119 -0.761416 7.818582 -2.241594 139.999756
[Rope2_Seg03]
27 140.000107 0.000030 0.000000 1.752973 7.720671 -7.982355 140.000107
28 140.000107 0.000030 0.000000 -0.033042 6.222729 -3.006887 140.000107
[Rope2_Seg04]
27 139.999802 0.000000 -0.000060 -1.241190 6.968756 -1.530747 139.999802
28 139.999802 0.000000 -0.000060 -0.998736 2.654304 0.166526 139.999802
[Rope2_Seg05]
27 139.999985 -0.000060 0.000119 -9.599681 8.747171 7.959764 139.999985
28 139.999985 -0.000060 0.000119 -2.506219 -0.987777 3.872756 139.999985
[Rope2_Seg06]
27 139.999893 -0.000030 -0.000119 -8.002273 5.133827 6.678897 139.999893
28 139.999893 -0.000030 -0.000119 -1.601806 -0.674162 2.622907 139.999893
[Rope2_Seg07]
27 139.999893 0.000060 -0.000060 -4.792265 2.749585 3.878224 139.999893
28 139.999893 0.000060 -0.000060 -0.965399 -0.193298 1.521698 139.999893
[Rope2_Seg09]
27 121.338966 0.000089 -0.000060 33.793236 -1.359788 -0.847141 121.338966
28 121.338966 0.000089 -0.000060 33.793236 -1.359788 -0.847141 121.338966
[R_mid_hand01]
27 104.680779 11.144459 -10.335981 -41.523792 25.424656 28.595957 105.778534
28 104.680779 11.144459 -10.335981 -41.523792 25.424656 28.595957 105.778534
[R_mid_hand02]
27 104.070427 2.443552 8.231699 72.847389 -32.746803 10.013901 104.424065
28 104.070427 2.443552 8.231699 72.847389 -32.746803 10.013901 104.424065
[R_mid_hand03]
27 106.028137 -11.221827 -5.996406 -167.901306 10.259192 -37.009720 106.788818
28 106.028137 -11.221827 -5.996406 -167.901306 10.259192 -37.009720 106.788818
[spine02]
27 129.756927 0.001550 0.000119 0.001147 -1.797838 -7.854275 129.756927
28 129.756927 0.001550 0.000119 0.001147 -1.797837 -7.854275 129.756927
[spine03]
27 79.115631 0.000000 -0.000119 1.459971 -2.848092 23.765965 79.115631
28 79.115631 0.000000 -0.000119 1.459971 -2.848092 23.765963 79.115631
[pelvis]
27 169.435242 0.051022 0.000000 -0.000005 0.000003 -4.322055 169.435257
28 169.435242 0.051022 0.000000 -0.000005 0.000003 -4.322055 169.435257
[null_rope03_connect]
27 -1.257226 -2.466202 137.391083 54.312504 -85.038803 17.482353 137.418976
28 -1.257226 -2.466202 137.391083 55.789280 -84.743347 15.781771 137.418976
[null_rope04_connect]
27 -1.259640 -2.480268 -137.844437 54.312504 -85.038803 17.482353 137.872513
28 -1.259640 -2.480268 -137.844437 55.789280 -84.743347 15.781771 137.872513
[Rope3_Seg01]
27 0.000010 0.000022 -0.000086 -130.963760 3.384243 -91.623543 0.000090
28 0.000010 0.000021 -0.000084 -131.176300 4.636653 -86.986755 0.000087
[Rope3_Seg02]
27 139.999924 -0.000119 0.000060 0.158072 -1.666525 -2.929103 139.999924
28 139.999924 -0.000119 0.000060 0.267131 0.588297 -1.277925 139.999924
[Rope3_Seg03]
27 139.999924 -0.000119 0.000119 0.158538 -1.948105 -3.404641 139.999924
28 139.999924 -0.000119 0.000119 0.269922 0.672916 -1.485452 139.999924
[Rope3_Seg04]
27 139.999924 0.000119 0.000000 0.117206 -2.344893 -4.434084 139.999924
28 139.999924 0.000119 0.000000 0.282092 1.534034 -1.592183 139.999924
[Rope3_Seg05]
27 139.999924 -0.000238 0.000060 0.274494 -2.950597 -6.162821 139.999924
28 139.999924 -0.000238 0.000060 0.593066 3.003869 -1.788631 139.999924
[Rope3_Seg06]
27 139.999893 -0.000119 -0.000060 0.557672 -2.651268 -2.856105 139.999893
28 139.999893 -0.000119 -0.000060 0.416432 -3.108907 -3.245744 139.999893
[Rope3_Seg07]
27 139.999771 0.000060 -0.000119 0.794633 -1.814510 0.839827 139.999771
28 139.999771 0.000060 -0.000119 0.745996 -7.704598 -3.687645 139.999771
[Rope3_Seg08]
27 139.999985 -0.000060 0.000000 0.728448 -1.588839 -0.334914 139.999985
28 139.999985 -0.000060 0.000000 0.828783 -4.146730 -2.473379 139.999985
[Rope3_Seg09]
27 90.185997 -0.000179 -0.000060 89.793228 -1.359877 -0.847183 90.185997
28 90.185997 -0.000179 -0.000060 89.793228 -1.359877 -0.847183 90.185997
[R_rear_hand01]
27 103.366196 -6.073594 -10.757982 -161.551193 16.666374 -30.088671 104.101845
28 103.366196 -6.073594 -10.757982 -161.551193 16.666374 -30.088671 104.101845
[R_rear_hand02]
27 100.509819 12.039542 -7.992327 -34.280552 19.289745 28.875523 101.543350
28 100.509819 12.039542 -7.992327 -34.280552 19.289745 28.875523 101.543350
[R_rear_hand03]
27 101.539970 5.215704 5.435467 83.366440 -30.933914 7.284830 101.819031
28 101.539970 5.215704 5.435467 83.366440 -30.933914 7.284830 101.819031
[Rope4_Seg01]
27 0.000010 0.000038 -0.000114 45.931900 16.229122 -107.162094 0.000121
28 0.000010 0.000038 -0.000114 50.722347 18.565989 -90.429634 0.000121
[Rope4_Seg02]
27 139.999985 0.000060 0.000119 -0.234967 6.479799 14.886109 139.999985
28 139.999985 0.000060 0.000119 -2.322107 -5.116261 6.173887 139.999985
[Rope4_Seg03]
27 139.999924 0.000000 -0.000238 -1.504949 3.171322 8.652030 139.999924
28 139.999924 0.000000 -0.000238 -0.963635 -3.974869 2.569040 139.999924
[Rope4_Seg04]
27 139.999985 0.000000 0.000119 -1.508322 1.455393 5.480145 139.999985
28 139.999985 0.000000 0.000119 -0.415373 -2.971850 1.199783 139.999985
[Rope4_Seg05]
27 139.999802 -0.000060 -0.000119 -0.423915 1.384346 2.034428 139.999802
28 139.999802 -0.000060 -0.000119 -0.087534 1.026772 1.638009 139.999802
[Rope4_Seg06]
27 139.999924 0.000000 0.000060 0.409113 2.047975 0.379985 139.999924
28 139.999924 0.000000 0.000060 0.130501 4.655035 2.803867 139.999924
[Rope4_Seg07]
27 139.999802 0.000000 0.000000 0.951232 2.916839 -0.206611 139.999802
28 139.999802 0.000000 0.000000 0.226985 6.807191 3.870464 139.999802
[Rope4_Seg08]
27 139.999924 0.000000 0.000119 -1.202191 2.214843 0.675956 139.999924
28 139.999924 0.000000 0.000119 -1.678294 4.275091 2.874497 139.999924
[Rope4_Seg09]
27 90.185791 0.000060 0.000060 -135.617828 2.228885 0.850567 90.185791
28 90.185791 0.000060 0.000060 -135.617828 2.228885 0.850567 90.185791
[L_rear_hand01]
27 101.696655 -8.392275 -7.654577 -34.454281 -18.946800 151.655121 102.329041
28 101.696655 -8.392275 -7.654577 -34.454281 -18.946800 151.655121 102.329041
[L_rear_hand02]
27 102.726799 -1.568258 5.773216 83.407906 30.330435 172.796509 102.900848
28 102.726799 -1.568258 5.773216 83.407906 30.330435 172.796509 102.900848
[L_rear_hand03]
27 104.552910 9.721220 -10.420293 -161.379868 -16.473232 -150.512238 105.519653
28 104.552910 9.721220 -10.420293 -161.379868 -16.473232 -150.512238 105.519653
